# xmcd CD database file
#
# Track frame offsets:
#	150
#	20926
#	38576
#	54760
#	72621
#	90349
#	108181
#	124921
#	144608
#	165221
#	184411
#	199699
#	224084
#	238654
#	261077
#	278780
#	297098
#	317158
#	335187
#
# Disc length: 4685 seconds
#
# Revision: 0
# Processed by: cddbd v1.5.2PL0 Copyright (c) Steve Scherf et al.
# Submitted via: CDex 1.70beta2
#
DISCID=25124b13
DTITLE=Various Artist - Merengue Desde Santa Domingo Pa New York Vol. 13
DYEAR=1900
DGENRE=Merengue
TTITLE0=Aguakate and Sergio Vargas - Filosofía
TTITLE1=Nelson and Johnny Ventura - A Que No Me Apaga
TTITLE2=Tulile - Caramelo
TTITLE3=Mala Fe - Pluma Pluma Gay
TTITLE4=Darlyn and Los Herederos - Falso Amor
TTITLE5=Fernando Villalona - Sin Ti
TTITLE6=El Jeffrey - Sufriendo De Amor
TTITLE7=Jossie Estevan - Yo También Soy Sentimental
TTITLE8=Aramis Camilo - Perdóname
TTITLE9=Kerubanda - María Aleída
TTITLE10=El Invisible - Los Chelitos
TTITLE11=Fray Martínez and Aguakate - 2 Pesos
TTITLE12=Chu Trompeta - Ya No Te Quiero
TTITLE13=El Prodigio and Robert - Aunque Le Pique
TTITLE14=Toño Rosario - Como Lo Hace Yari
TTITLE15=Frandy Sax - Qué Rubia
TTITLE16=Sin Fronteras - Si Te Vas
TTITLE17=Azucarado - Tu Amor Me Hace Bien
TTITLE18=Barimambo - Te Echa Patra
EXTD=
EXTT0=
EXTT1=
EXTT2=
EXTT3=
EXTT4=
EXTT5=
EXTT6=
EXTT7=
EXTT8=
EXTT9=
EXTT10=
EXTT11=
EXTT12=
EXTT13=
EXTT14=
EXTT15=
EXTT16=
EXTT17=
EXTT18=
PLAYORDER=
